PathFileType	4	(X/Y/Z)	/Users/itak/Documents/Research/Walk-IL/dataset/trc/00398_00012.trc
DataRate	CameraRate	NumFrames	NumMarkers	Units	OrigDataRate	OrigDataStartFrame	OrigNumFrames
100.000000	100.000000	4	53	mm	100.000000	473	757
Frame#	Time	RPSI			LPSI			L3			STRN			T10			C7			CLAV			RBAK			LBAK			LSHO			LUPA			LAEL			LAOL			LWTS			LWPS			LFRA			LIFD			LHPS			LHTS			RSHO			RUPA			RAEL			RAOL			RWTS			RWPS			RFRA			RIFD			RHTS			RHPS			RBHD			LFHD			RFHD			LBHD			LHIP			RHIP			RASI			LASI			LKNE			LTHI			LANK			LTIP			LTOE			LMT1			LMT5			LHEE			RKNE			RTHI			RANK			RTIP			RTOE			RMT1			RMT5			RHEE			
		X1	Y1	Z1	X2	Y2	Z2	X3	Y3	Z3	X4	Y4	Z4	X5	Y5	Z5	X6	Y6	Z6	X7	Y7	Z7	X8	Y8	Z8	X9	Y9	Z9	X10	Y10	Z10	X11	Y11	Z11	X12	Y12	Z12	X13	Y13	Z13	X14	Y14	Z14	X15	Y15	Z15	X16	Y16	Z16	X17	Y17	Z17	X18	Y18	Z18	X19	Y19	Z19	X20	Y20	Z20	X21	Y21	Z21	X22	Y22	Z22	X23	Y23	Z23	X24	Y24	Z24	X25	Y25	Z25	X26	Y26	Z26	X27	Y27	Z27	X28	Y28	Z28	X29	Y29	Z29	X30	Y30	Z30	X31	Y31	Z31	X32	Y32	Z32	X33	Y33	Z33	X34	Y34	Z34	X35	Y35	Z35	X36	Y36	Z36	X37	Y37	Z37	X38	Y38	Z38	X39	Y39	Z39	X40	Y40	Z40	X41	Y41	Z41	X42	Y42	Z42	X43	Y43	Z43	X44	Y44	Z44	X45	Y45	Z45	X46	Y46	Z46	X47	Y47	Z47	X48	Y48	Z48	X49	Y49	Z49	X50	Y50	Z50	X51	Y51	Z51	X52	Y52	Z52	X53	Y53	Z53	

474	4.73	-222.6517944335938	955.4297485351562	-680.7654418945312	-146.1420440673828	926.0965576171875	-576.0647583007812	-186.5528106689453	1020.649780273438	-633.0044555664062	-373.1844177246094	1172.378295898438	-491.68310546875	-177.0183563232422	1123.976440429688	-642.691650390625	-207.4479675292969	1372.380737304688	-611.2001953125	-329.4485168457031	1292.226928710938	-519.8723754882812	-212.4140167236328	1229.609130859375	-695.382080078125	-130.5542144775391	1333.947387695312	-545.7938842773438	-162.2387084960938	1347.704833984375	-451.33740234375	-80.63368225097656	1239.006469726562	-437.7762145996094	-33.84852981567383	1048.528564453125	-445.9304809570312	-62.88098907470703	1030.533203125	-525.0271606445312	-65.46534729003906	814.5169677734375	-418.6373901367188	12.4753303527832	822.5692749023438	-441.1408081054688	-11.30786514282227	946.3391723632812	-445.281005859375	-24.77500915527344	639.360107421875	-446.1175231933594	18.80547332763672	736.90771484375	-448.5456848144531	-30.91301727294922	718.4946899414062	-415.1145935058594	-345.4500122070312	1357.349731445312	-700.346923828125	-372.2520751953125	1294.488037109375	-757.568603515625	-445.7225952148438	1041.603515625	-797.1566162109375	-382.7848815917969	1017.580322265625	-727.4069213867188	-622.5885620117188	914.1653442382812	-682.746826171875	-621.814208984375	886.4698486328125	-751.6012573242188	-497.919921875	993.8853759765625	-790.9490356445312	-719.9859008789062	772.1779174804688	-662.1568603515625	-699.7620849609375	840.9337768554688	-678.95361328125	-674.051025390625	817.1446533203125	-737.8807983398438	-302.7260131835938	1557.424926757812	-653.169921875	-282.2271118164062	1562.917236328125	-454.2372131347656	-368.4186096191406	1574.314697265625	-538.76220703125	-176.7565765380859	1538.879150390625	-555.4785766601562	-155.9280090332031	910.1317138671875	-434.1334228515625	-353.7955322265625	943.8121337890625	-733.9999389648438	-439.2471313476562	937.83056640625	-614.3740234375	-276.493896484375	918.0604858398438	-407.5906982421875	-367.3100280761719	452.1163635253906	-388.7107543945312	-301.5911560058594	577.362548828125	-398.64013671875	-517.1956176757812	29.46334838867188	-422.7835998535156	-432.8119506835938	226.0695190429688	-398.8916015625	-671.3418579101562	114.200080871582	-298.9608764648438	-657.2471923828125	92.22807312011719	-376.1173706054688	-572.40283203125	65.27480316162109	-315.4639587402344	-539.8170166015625	27.79396820068359	-486.6778259277344	-300.6005859375	455.682373046875	-738.8907470703125	-390.7146911621094	706.4850463867188	-707.11962890625	-127.1912612915039	61.52141189575195	-786.0849609375	-267.7241821289062	330.4687805175781	-742.1492919921875	-272.7480163574219	35.85843276977539	-667.8790283203125	-192.1566467285156	43.78678131103516	-664.8086547851562	-205.95361328125	40.29905700683594	-765.7662353515625	-39.20478820800781	62.16071319580078	-761.5526733398438	
475	4.74	-232.2489929199219	954.5657348632812	-675.815185546875	-155.344970703125	925.3707885742188	-571.3523559570312	-195.8380432128906	1019.562072753906	-628.1778564453125	-380.9631958007812	1171.449829101562	-485.8657836914062	-185.923583984375	1122.9306640625	-638.0374145507812	-215.2530975341797	1371.383178710938	-605.9314575195312	-337.1471557617188	1291.251220703125	-514.089599609375	-221.0520477294922	1228.672241210938	-690.2767944335938	-138.2380828857422	1332.669311523438	-540.839599609375	-169.5022888183594	1346.466552734375	-446.2330322265625	-88.10489654541016	1237.4931640625	-433.0910034179688	-41.57470321655273	1047.185546875	-441.7734375	-71.06333923339844	1029.199951171875	-520.7179565429688	-71.99306488037109	812.4801635742188	-416.4797058105469	5.901268005371094	821.6248779296875	-438.7389526367188	-18.61849021911621	945.083984375	-441.9065246582031	-30.45671653747559	637.4351806640625	-446.2660522460938	13.10364818572998	736.2302856445312	-447.8868408203125	-36.33885955810547	716.5413208007812	-415.111083984375	-353.7763061523438	1356.606567382812	-694.457275390625	-380.8976745605469	1293.683715820312	-751.5171508789062	-454.4236450195312	1040.751220703125	-790.4603881835938	-391.3898620605469	1016.787231445312	-720.865478515625	-631.2220458984375	914.5870971679688	-674.8922729492188	-630.9937744140625	886.6659545898438	-743.686767578125	-506.7309875488281	993.2974243164062	-784.0054321289062	-729.410400390625	773.3101196289062	-653.2862548828125	-709.0733642578125	841.9390869140625	-670.473388671875	-683.6038208007812	817.7113037109375	-729.4506225585938	-310.3667602539062	1556.2373046875	-648.1769409179688	-288.6154479980469	1562.505737304688	-449.3490600585938	-375.3919677734375	1573.81103515625	-533.4356689453125	-183.9302520751953	1537.634765625	-551.2230224609375	-164.6505432128906	909.6356201171875	-429.3854064941406	-363.5185241699219	942.73583984375	-728.6669921875	-448.6309814453125	936.7056884765625	-608.6419067382812	-285.09521484375	917.405517578125	-402.3009643554688	-375.9200744628906	451.5086975097656	-383.5320434570312	-310.5628662109375	576.9491577148438	-392.9604797363281	-519.7100219726562	28.37716674804688	-421.8158569335938	-438.6963806152344	224.6616668701172	-395.5472412109375	-675.083740234375	108.5589752197266	-296.8240661621094	-661.0195922851562	87.55989074707031	-374.3185424804688	-575.3690795898438	62.05049133300781	-314.1890869140625	-542.630615234375	26.39561462402344	-485.6065063476562	-308.280029296875	454.9002685546875	-734.3478393554688	-399.5768737792969	705.1846923828125	-701.6806640625	-128.2784118652344	63.78521347045898	-786.1643676757812	-273.4498901367188	330.1570739746094	-739.0357055664062	-273.147216796875	35.61796569824219	-667.8159790039062	-192.6518096923828	44.33249282836914	-664.9678955078125	-206.6224212646484	40.4998893737793	-765.7369384765625	-40.23813247680664	66.17311859130859	-761.7661743164062	
476	4.75	-242.0369567871094	953.9419555664062	-670.6090087890625	-164.7281646728516	924.987060546875	-566.337646484375	-205.3413238525391	1018.674926757812	-623.0925903320312	-388.8316650390625	1170.831420898438	-479.9152526855469	-194.7581176757812	1122.115112304688	-633.2049560546875	-222.9950561523438	1370.606323242188	-600.5335083007812	-344.8843688964844	1290.563598632812	-508.1969299316406	-229.6370697021484	1227.961669921875	-685.021240234375	-145.9013214111328	1331.583862304688	-535.7111206054688	-176.7745208740234	1345.448120117188	-440.9796447753906	-95.63433074951172	1236.199829101562	-428.1921081542969	-49.45869827270508	1046.00732421875	-437.2698974609375	-79.1895751953125	1028.07763671875	-516.1441040039062	-79.30419921875	810.7042236328125	-413.9331970214844	-1.327756285667419	820.7715454101562	-435.3969421386719	-26.26049423217773	943.931396484375	-437.9728393554688	-37.20481109619141	635.6939697265625	-446.0067443847656	6.614489555358887	735.6354370117188	-446.3310546875	-42.82900619506836	714.7723999023438	-414.6990051269531	-362.0191955566406	1356.126342773438	-688.4779052734375	-389.42724609375	1293.150024414062	-745.402099609375	-462.8016967773438	1040.129150390625	-783.7775268554688	-399.6050720214844	1016.263854980469	-714.3681640625	-639.3441772460938	914.8358154296875	-667.130126953125	-639.6172485351562	886.7425537109375	-735.8843383789062	-515.1603393554688	992.8269653320312	-777.1089477539062	-738.0232543945312	774.07470703125	-644.55908203125	-717.8359985351562	842.6427612304688	-662.1043701171875	-692.4606323242188	818.046630859375	-721.1505737304688	-317.9068603515625	1555.309692382812	-643.0694580078125	-294.981201171875	1562.34228515625	-444.3505554199219	-382.3108215332031	1573.567749023438	-528.0361328125	-191.0408172607422	1536.645385742188	-546.802490234375	-173.5850830078125	909.5097045898438	-424.321533203125	-373.4665222167969	941.8331298828125	-723.0761108398438	-458.1869506835938	935.8192138671875	-602.6578369140625	-293.8902893066406	917.1094970703125	-396.7387084960938	-384.2351379394531	451.0330505371094	-378.2308959960938	-319.2714233398438	576.7206420898438	-387.1031494140625	-521.1970825195312	27.65120315551758	-421.5475769042969	-444.1158142089844	223.3273315429688	-392.431640625	-677.9788818359375	101.9435882568359	-294.8651123046875	-663.98583984375	82.24172973632812	-372.8160705566406	-577.3610229492188	58.54406356811523	-313.4642333984375	-544.530517578125	25.4097957611084	-485.1729736328125	-316.2961730957031	454.3494567871094	-729.5698852539062	-408.7298889160156	704.1171875	-695.9786987304688	-129.6177062988281	66.40716552734375	-786.2781982421875	-279.4473571777344	330.1409912109375	-735.86767578125	-273.5181274414062	35.40573501586914	-667.7651977539062	-193.2682800292969	45.05371475219727	-665.162109375	-207.4314117431641	40.74007797241211	-765.7120971679688	-41.57237243652344	70.81004333496094	-761.94775390625	
477	4.76	-251.9971618652344	953.5632934570312	-665.1221313476562	-174.2597808837891	924.9607543945312	-561.0023803710938	-215.0457153320312	1018.009887695312	-617.7072143554688	-396.7959594726562	1170.540283203125	-473.8493347167969	-203.5310974121094	1121.52880859375	-628.1724243164062	-230.6732330322266	1370.062377929688	-595.0234985351562	-352.6506652832031	1290.181518554688	-502.2060852050781	-238.1592559814453	1227.484130859375	-679.6093139648438	-153.5365142822266	1330.70458984375	-530.4285278320312	-184.0487976074219	1344.66455078125	-435.5955200195312	-103.2107009887695	1235.149047851562	-423.1130676269531	-57.48403549194336	1045.005004882812	-432.4530334472656	-87.26528930664062	1027.170776367188	-511.3279724121094	-87.36487579345703	809.2238159179688	-410.9865417480469	-9.190838813781738	820.0015258789062	-431.1564025878906	-34.22150802612305	942.8878784179688	-433.5091247558594	-45.0570068359375	634.1566162109375	-445.2653198242188	-0.659446656703949	735.085205078125	-443.8457641601562	-50.42151641845703	713.2080078125	-413.8046264648438	-370.1650390625	1355.91943359375	-682.43115234375	-397.8143920898438	1292.892700195312	-739.2438354492188	-470.8786926269531	1039.745483398438	-777.1307983398438	-407.489501953125	1015.979858398438	-707.9096069335938	-646.9664306640625	914.9075927734375	-659.4832763671875	-647.7025756835938	886.6990356445312	-728.2161254882812	-523.2262573242188	992.4847412109375	-770.2741088867188	-745.8260498046875	774.4610595703125	-635.9852294921875	-725.9866943359375	843.0172119140625	-653.8563842773438	-700.6350708007812	818.1414184570312	-712.99853515625	-325.3468627929688	1554.671630859375	-637.855712890625	-301.3283996582031	1562.448974609375	-439.2485656738281	-389.1611328125	1573.611206054688	-522.5674438476562	-198.0842132568359	1535.942749023438	-542.2201538085938	-182.7052459716797	909.7590942382812	-418.9176940917969	-383.6177368164062	941.1223754882812	-717.2074584960938	-467.8904418945312	935.1920166015625	-596.41064453125	-302.8541259765625	917.1705322265625	-390.9081115722656	-392.0791931152344	450.6543273925781	-372.9196472167969	-327.5855407714844	576.639404296875	-381.2088012695312	-522.1304931640625	27.43010139465332	-421.7046203613281	-449.2354736328125	222.1401672363281	-389.4610290527344	-680.37939453125	94.77573394775391	-292.8470153808594	-666.5079956054688	76.64594268798828	-371.3653869628906	-578.79248046875	55.05400466918945	-313.0368041992188	-545.9808959960938	25.02292823791504	-485.0951232910156	-324.7552490234375	454.0403137207031	-724.5018310546875	-418.1986389160156	703.3037719726562	-689.9846801757812	-131.2902679443359	69.41424560546875	-786.4287719726562	-285.8348388671875	330.441650390625	-732.610107421875	-273.8211669921875	35.23358154296875	-667.721923828125	-194.0288848876953	45.96406555175781	-665.3828735351562	-208.4048309326172	41.01389312744141	-765.6845703125	-43.32366943359375	76.13194274902344	-762.09423828125	
